<svg width="28" height="28" viewBox="0 0 28 28" fill="none" xmlns="http://www.w3.org/2000/svg">
<g clip-path="url(#clip0_2737_206)">
<path d="M10.5 7.61863C10.5 5.68837 8.93025 4.11863 7 4.11863C5.06975 4.11863 3.5 5.68837 3.5 7.61863C3.5 9.24613 4.6165 10.6181 6.125 11.0075V17.3539C4.6165 17.7432 3.5 19.1153 3.5 20.7428C3.5 22.673 5.06975 24.2428 7 24.2428C8.93025 24.2428 10.5 22.673 10.5 20.7428C10.5 19.1153 9.3835 17.7432 7.875 17.3539V11.0075C9.3835 10.6181 10.5 9.24613 10.5 7.61863ZM5.25 7.61863C5.25 6.6535 6.03487 5.86863 7 5.86863C7.96513 5.86863 8.75 6.6535 8.75 7.61863C8.75 8.58375 7.96513 9.36863 7 9.36863C6.03487 9.36863 5.25 8.58375 5.25 7.61863ZM8.75 20.7436C8.75 21.7088 7.96513 22.4936 7 22.4936C6.03487 22.4936 5.25 21.7088 5.25 20.7436C5.25 19.7785 6.03487 18.9936 7 18.9936C7.96513 18.9936 8.75 19.7785 8.75 20.7436ZM21.875 17.3548V9.36863C21.875 7.92138 20.6973 6.74363 19.25 6.74363H14.7997L16.8061 4.73725L15.5689 3.5L12.7199 6.349C12.0426 7.02713 12.0417 8.1305 12.7199 8.8095L15.5689 11.6585L16.8061 10.4213L14.8689 8.49363H19.25C19.733 8.49363 20.125 8.8865 20.125 9.36863V17.3548C18.6165 17.7441 17.5 19.1161 17.5 20.7436C17.5 22.6739 19.0697 24.2436 21 24.2436C22.9303 24.2436 24.5 22.6739 24.5 20.7436C24.5 19.1161 23.3835 17.7441 21.875 17.3548ZM21 22.4936C20.0349 22.4936 19.25 21.7088 19.25 20.7436C19.25 19.7785 20.0349 18.9936 21 18.9936C21.9651 18.9936 22.75 19.7785 22.75 20.7436C22.75 21.7088 21.9651 22.4936 21 22.4936Z" fill="#EC4899"/>
</g>
<defs>
<clipPath id="clip0_2737_206">
<rect width="21" height="21" fill="white" transform="translate(3.5 3.5)"/>
</clipPath>
</defs>
</svg>
